<?xml version="1.0" encoding="utf-8"?>
<!-- Generator: Adobe Illustrator 28.0.0, SVG Export Plug-In . SVG Version: 6.00 Build 0)  -->
<svg version="1.1" id="Calque_1" xmlns="http://www.w3.org/2000/svg" xmlns:xlink="http://www.w3.org/1999/xlink" x="0px" y="0px"
	 viewBox="0 0 512 512" style="enable-background:new 0 0 512 512;" xml:space="preserve">
<style type="text/css">
	.st0{fill:#742948;}
</style>
<g transform="translate(0.000000,512.000000) scale(0.100000,-0.100000)">
	<path class="st0" d="M2321,5110c-497-48-990-251-1376-565c-114-92-294-274-384-387c-229-287-417-675-495-1023
		c-49-218-60-325-60-575s11-357,60-575c79-355,272-749,509-1040c92-114,274-294,387-384c287-229,675-417,1023-495
		c218-49,325-60,575-60s357,11,575,60c261,58,603,204,828,353c389,259,688,599,893,1016c125,255,196,484,241,775
		c24,161,24,539,0,700c-45,291-116,520-241,775c-134,272-283,480-498,692c-211,209-404,346-673,478c-252,124-486,197-765,240
		C2794,5114,2452,5122,2321,5110z M2915,4771c240-40,419-98,640-206c570-280,1011-818,1170-1431c54-207,69-331,69-574
		s-15-367-69-574c-159-613-600-1151-1170-1431c-221-108-397-165-645-207c-180-31-520-31-700,0c-248,42-424,99-645,207
		C995,835,554,1373,395,1986c-54,207-69,331-69,574s15,367,69,574c55,212,170,470,290,651c382,574,972,932,1660,1005
		C2474,4804,2779,4794,2915,4771z"/>
	<path class="st0" d="M1229,3308c-66-38-95-122-69-195c14-38,1265-1291,1307-1309c18-8,60-14,93-14s75,6,93,14
		c42,18,1293,1271,1307,1309c47,129-78,254-207,207c-15-6-288-270-610-593l-583-582l-582,582c-323,323-596,587-611,593
		C1323,3336,1268,3331,1229,3308z"/>
</g>
</svg>
